<svg width="6" height="9" viewBox="0 0 6 9" fill="none" xmlns="http://www.w3.org/2000/svg">
<path d="M0.273477 3.91611L4.67023 0.193541C5.18834 -0.245778 6 0.111266 6 0.778007V8.22315C6.00013 8.37237 5.95582 8.51846 5.87236 8.64393C5.78891 8.7694 5.66985 8.86893 5.52945 8.9306C5.38905 8.99227 5.23326 9.01347 5.08073 8.99166C4.9282 8.96985 4.7854 8.90595 4.66942 8.80762L0.274279 5.08504C0.188133 5.01219 0.119089 4.92234 0.071782 4.82154C0.024475 4.72073 0 4.6113 0 4.50058C0 4.38986 0.024475 4.28043 0.071782 4.17962C0.119089 4.07881 0.188133 3.98897 0.274279 3.91611H0.273477Z" fill="black"/>
</svg>
